<svg id="레이어_1" data-name="레이어 1" xmlns="http://www.w3.org/2000/svg" viewBox="0 0 150 150"><defs><style>.cls-1{fill:#fff18a;}.cls-2{fill:#2d2d2d;}.cls-3{fill:none;stroke:#2d2d2d;stroke-linecap:round;stroke-linejoin:round;}</style></defs><path class="cls-1" d="M69.09,14a13,13,0,0,0-2.34.94c-3,1.14-10.68,5-16.65,16.35-7.64,14.55-26,3.2-32.55,14.3C7.1,63.36,23.47,57,13.12,72.24s-9.62,19.48-1,27.62S6.7,125.25,24,124.76s23.68-6.66,34.53,7.15,32.3-10.36,38-9.62,27.86,9.62,32.79,3.21-.49-19.73,5.67-23.18,16.28-9.12,3.21-22.19.74-27.37-2.71-34-30.33-6.41-39.21-16.27C87.64,20.31,79.07,12.44,69.09,14Z"/><circle class="cls-2" cx="57.27" cy="65.04" r="0.96"/><circle class="cls-2" cx="69.38" cy="64.7" r="0.91"/><line class="cls-3" x1="63.38" y1="65.81" x2="63.38" y2="72.72"/><path class="cls-3" d="M47.11,73.15s12.64,12.14,36.92,0"/></svg>