<svg id="레이어_1" data-name="레이어 1" xmlns="http://www.w3.org/2000/svg" viewBox="0 0 150 150"><defs><style>.cls-1{fill:#fea25e;}.cls-2{fill:none;stroke:#2d2d2d;stroke-linecap:round;stroke-linejoin:round;stroke-width:1.29px;}.cls-3{fill:#2d2d2d;}</style></defs><path class="cls-1" d="M10.61,83.4a21.08,21.08,0,0,0,.44-3.16C12,68.93,21.1,2,99.24,22.54,157.9,38,153.75,151.8,108.49,127.41c-33.19-17.88-26.31.61-43.67,3.67-15.09,2.66-15.94-14.5-39.85-11.32C3.87,122.58,5.05,106.54,10.61,83.4Z"/><line class="cls-2" x1="72.69" y1="59.99" x2="72.69" y2="69.87"/><path class="cls-2" d="M63.92,73.06s10,13.55,23.43,0"/><path class="cls-2" d="M86.15,69.87s.24,4.7,4.07,4.31"/><circle class="cls-3" cx="65.27" cy="59.27" r="1.35"/><circle class="cls-3" cx="82.41" cy="59.27" r="1.28"/></svg>