<svg id="레이어_1" data-name="레이어 1" xmlns="http://www.w3.org/2000/svg" viewBox="0 0 40 35"><defs><style>.cls-1{fill:#a0d094;}.cls-2{fill:#ed7c78;}.cls-3{fill:#909ecf;}.cls-4{fill:#f4f192;}.cls-5{fill:#2d2d2d;}</style></defs><path class="cls-1" d="M17.91,21.93a12.28,12.28,0,0,0-8.46,9.34,23.39,23.39,0,0,0,9.08,3.15A36.26,36.26,0,0,0,17.91,21.93Z"/><path class="cls-2" d="M17.91,21.93C15.68,13,9.55,9.58,4.6,8.32A16.73,16.73,0,0,0,1,18.16c0,5.48,3.62,10.17,8.5,13.11A12.28,12.28,0,0,1,17.91,21.93Z"/><path class="cls-1" d="M25.27,34A18.69,18.69,0,0,0,37.75,23.73a54,54,0,0,0-9.44-2.3A43.4,43.4,0,0,0,25.27,34Z"/><path class="cls-1" d="M17.91,21.93a36.26,36.26,0,0,1,.62,12.49,20.33,20.33,0,0,0,2.32.14A17.74,17.74,0,0,0,25.27,34a43.4,43.4,0,0,1,3-12.56A23.38,23.38,0,0,0,17.91,21.93Z"/><path class="cls-3" d="M17.91,21.93a23.38,23.38,0,0,1,10.4-.5A36.67,36.67,0,0,1,36.58,9C33.31,3.43,26.94.44,20.59.44a20.07,20.07,0,0,0-16,7.88C9.55,9.58,15.68,13,17.91,21.93Z"/><path class="cls-4" d="M28.31,21.43a54,54,0,0,1,9.44,2.3,15.08,15.08,0,0,0,1.3-6.08A17.2,17.2,0,0,0,36.58,9,36.67,36.67,0,0,0,28.31,21.43Z"/><circle class="cls-5" cx="14.53" cy="14.45" r="1.26"/><circle class="cls-5" cx="24.68" cy="14.45" r="1.15"/><path class="cls-5" d="M18.74,18.73a1,1,0,0,1-1-1v-3a1,1,0,0,1,2,0v3A1,1,0,0,1,18.74,18.73Z"/><path class="cls-5" d="M18.64,24a3.87,3.87,0,0,1-.48,0c-3-.34-4.48-3.7-4.55-3.84a1,1,0,0,1,1.84-.8c0,.06,1.11,2.45,2.94,2.65,1.43.16,3.15-1.07,5-3.55a1,1,0,0,1,1.39-.22,1,1,0,0,1,.22,1.4C22.84,22.55,20.71,24,18.64,24Z"/></svg>