<svg id="레이어_1" data-name="레이어 1" xmlns="http://www.w3.org/2000/svg" viewBox="0 0 150 150"><defs><style>.cls-1{fill:#c4af9f;}.cls-2{fill:#f4efe2;}.cls-3{fill:#2d2320;}.cls-4{fill:none;stroke:#2d2320;stroke-linecap:round;stroke-linejoin:round;stroke-width:1.95px;}.cls-5{fill:#f4f192;}.cls-6{fill:#ed7c78;}.cls-7{fill:#909ecf;}.cls-8{fill:#a0d094;}</style></defs><path class="cls-1" d="M110.91,22.35a30.68,30.68,0,0,0-6.7-1.94c-14.81-3-80.51-5.06-96.93,51.25-20,68.63,120,79.11,135.92,23.19,0,0,9.52-31.57-19.88-25.92-2.18.42-9.08.4-12-.41C103.81,66.44,98.64,55.6,114,43.66c.62-.48,2.32-1.89,3.53-3C119.29,39,123.59,29,110.91,22.35Z"/><circle class="cls-2" cx="127.75" cy="85.76" r="8.48"/><circle class="cls-3" cx="59.55" cy="68.02" r="1.86"/><circle class="cls-3" cx="78.99" cy="68.02" r="1.77"/><line class="cls-4" x1="68" y1="68.56" x2="68" y2="74.62"/><path class="cls-4" d="M59.55,78.7s6.79,15.66,19.36-1.44"/><path class="cls-5" d="M79.05,117.46c-3.39,1.36-8.1-3.79-9.46-7.18s1.18-3.75,4.57-5.1,8.15,3.56,9.51,6.95S82.44,116.11,79.05,117.46Z"/><path class="cls-6" d="M28.79,89.73c-2.9,2.7-5.66,1.53-7.74-1-3.19-2.65-4.49-5.15-2.74-7.7,2.82-2.52,8.9-4.76,10.9-2.27C32.67,81.21,30.73,87.12,28.79,89.73Z"/><path class="cls-7" d="M31.43,108.2c-3.08-2-5.8-3.78-3.84-6.85s7.87-6.25,11-4.29,2.37,4.59.41,7.66S34.51,110.17,31.43,108.2Z"/><path class="cls-8" d="M60.1,114.23c0,3.65-3.73,3.7-7.38,3.7s-4.52-3.31-4.52-7,.87-6.26,4.52-6.26S60.1,110.58,60.1,114.23Z"/></svg>