<svg id="레이어_1" data-name="레이어 1" xmlns="http://www.w3.org/2000/svg" viewBox="0 0 200 200"><defs><style>.cls-1{fill:#493c37;}.cls-2{fill:#c4af9f;}.cls-3{fill:#f4efe2;}.cls-4{fill:#2d2320;}.cls-5{fill:#f4f192;}.cls-6{fill:#ed7c78;}.cls-7{fill:#909ecf;}.cls-8{fill:#a0d094;}</style></defs><path class="cls-1" d="M59,184.47v0a2,2,0,0,1,.28,1,2.62,2.62,0,0,1-.48,1.28,2,2,0,0,1-1.48,1.18c-.24,0-.8,0-1.68.14a13.83,13.83,0,0,0,.08,1.52c.08.84.12,1.34.12,1.48,0,1.43-.53,2.14-1.58,2.14a7,7,0,0,1-2-.48,5.68,5.68,0,0,1-1.4-3.86l-.34-6.8c0-.49.09-1.23.14-2.22a2.19,2.19,0,0,1,1.18-1.72,7.38,7.38,0,0,1,3.72-.66,8.21,8.21,0,0,1,2.34.28,2.4,2.4,0,0,1,1,1.8,2,2,0,0,1-.94,1.86,3.26,3.26,0,0,1-1.1.38c-.59.16-.91.31-1,.44a5.29,5.29,0,0,1-.24,1.32.37.37,0,0,0,.28.1,3.88,3.88,0,0,0,.73-.16,5.83,5.83,0,0,1,.69-.16A2,2,0,0,1,59,184.47Z"/><path class="cls-1" d="M68.68,180.07c0,.55,0,1.22,0,2s0,1.3,0,1.52a39.83,39.83,0,0,1-.54,7.08,2.68,2.68,0,0,1-1.84,2.42l-.6,0a2,2,0,0,1-2.28-1.86,37.53,37.53,0,0,1-.44-5.78,26.45,26.45,0,0,1,.42-4.82l.54-1.34a3.38,3.38,0,0,1,3-1.5,3.67,3.67,0,0,1,.78.08,1.38,1.38,0,0,1,.74.94Z"/><path class="cls-1" d="M80.93,190.11h0a2.74,2.74,0,0,1-1.26,2.28,7.63,7.63,0,0,1-2.91.58c-2.83,0-4.25-1.52-4.25-4.58v-1.18c0-.14,0-.37,0-.68s0-.41,0-.52a34,34,0,0,1,.34-6.46,3.2,3.2,0,0,1,.83-1.4,2.76,2.76,0,0,1,1.45-.46l.49,0a1.74,1.74,0,0,1,1.23.36,6,6,0,0,1,.61.94,14.13,14.13,0,0,1,.34,3.36c0,.84-.08,2.16-.25,3.94a6.77,6.77,0,0,0,0,2,4.25,4.25,0,0,1,1.88-.38,1,1,0,0,1,.41.06,1.5,1.5,0,0,1,.86.9,6,6,0,0,1,.26,1.32Z"/><path class="cls-1" d="M92.85,190.11h0a2.74,2.74,0,0,1-1.26,2.28,7.68,7.68,0,0,1-2.92.58c-2.82,0-4.24-1.52-4.24-4.58v-1.18c0-.14,0-.37,0-.68s0-.41,0-.52a34,34,0,0,1,.34-6.46,3.2,3.2,0,0,1,.83-1.4,2.76,2.76,0,0,1,1.45-.46l.48,0a1.75,1.75,0,0,1,1.24.36,5.5,5.5,0,0,1,.6.94,13.63,13.63,0,0,1,.34,3.36c0,.84-.08,2.16-.24,3.94a6.77,6.77,0,0,0,0,2,4.25,4.25,0,0,1,1.88-.38,1,1,0,0,1,.4.06,1.45,1.45,0,0,1,.86.9,5,5,0,0,1,.26,1.32Z"/><path class="cls-1" d="M105.38,183.53a2.14,2.14,0,0,1,.06.62,2.24,2.24,0,0,1-.86,1.78,2.09,2.09,0,0,1-1.68.58,1.74,1.74,0,0,0-.6,0,5.46,5.46,0,0,1-.14,1.28.78.78,0,0,0,.42.72,2.16,2.16,0,0,1,1.34,0,1.27,1.27,0,0,1,.9,1.08,2.53,2.53,0,0,1-.5,1.75,4.72,4.72,0,0,1-1.66,1.49,4.4,4.4,0,0,1-2.22.54,4.71,4.71,0,0,1-2-.42,4.42,4.42,0,0,1-1.14-1.12c-.55-.9-.83-2.82-.84-5.74a41.94,41.94,0,0,1,.42-5.76,3.42,3.42,0,0,1,1.08-2.44l3.34-.34a8,8,0,0,1,1.64-.18c1,0,1.65.26,1.84.78a2.09,2.09,0,0,1,.12.72,1.73,1.73,0,0,1-.64,1.4,2.68,2.68,0,0,1-1.78.54H102a2.61,2.61,0,0,0-.16,1c0,.55,0,.87-.06.95a.48.48,0,0,0,.42.35,2.32,2.32,0,0,1,1.46-.46A2,2,0,0,1,105.38,183.53Z"/><path class="cls-1" d="M120.17,180h0a4.11,4.11,0,0,1,.06.78,2.35,2.35,0,0,1-.48,1.52,4.25,4.25,0,0,1-1.61.47,6.53,6.53,0,0,0-1.47.35c0,.15.12,1.54.46,4.18a14.47,14.47,0,0,1,.1,1.6,8,8,0,0,1-.48,3c-.4,1-1,1.47-1.76,1.44a3,3,0,0,1-2.62-1.18,4.9,4.9,0,0,1-.58-2.66c0,.11,0-.59.08-2.1l.1-2.56a15.28,15.28,0,0,1,.26-2.08,1.11,1.11,0,0,1-.36,0,4.3,4.3,0,0,1-1.36-.22,2.1,2.1,0,0,1-1.26-.88,3.05,3.05,0,0,1-.48-1.54,2,2,0,0,1,1.32-1.86,9,9,0,0,1,4.1-.86,15.42,15.42,0,0,1,2.64.24l2,.74A2.34,2.34,0,0,1,120.17,180Z"/><path class="cls-1" d="M134.6,180h0a4.11,4.11,0,0,1,.06.78,2.35,2.35,0,0,1-.48,1.52,4.25,4.25,0,0,1-1.61.47,6.53,6.53,0,0,0-1.47.35c0,.15.12,1.54.46,4.18a14.47,14.47,0,0,1,.1,1.6,8,8,0,0,1-.48,3c-.4,1-1,1.47-1.76,1.44a3,3,0,0,1-2.62-1.18,4.9,4.9,0,0,1-.58-2.66c0,.11,0-.59.08-2.1l.1-2.56a15.28,15.28,0,0,1,.26-2.08,1.11,1.11,0,0,1-.36,0,4.25,4.25,0,0,1-1.36-.22,2.1,2.1,0,0,1-1.26-.88,3.05,3.05,0,0,1-.48-1.54,2,2,0,0,1,1.32-1.86,9,9,0,0,1,4.1-.86,15.42,15.42,0,0,1,2.64.24l2,.74A2.34,2.34,0,0,1,134.6,180Z"/><path class="cls-1" d="M146.94,183.53a1.62,1.62,0,0,1,.06.62,2.21,2.21,0,0,1-.86,1.78,2.09,2.09,0,0,1-1.68.58,1.71,1.71,0,0,0-.6,0,5.46,5.46,0,0,1-.14,1.28.78.78,0,0,0,.42.72,2.16,2.16,0,0,1,1.34,0,1.27,1.27,0,0,1,.9,1.08,2.53,2.53,0,0,1-.5,1.75,4.72,4.72,0,0,1-1.66,1.49,4.35,4.35,0,0,1-2.22.54,4.74,4.74,0,0,1-2-.42,4.42,4.42,0,0,1-1.14-1.12c-.54-.9-.82-2.82-.84-5.74a41.94,41.94,0,0,1,.42-5.76,3.5,3.5,0,0,1,1.08-2.44l3.34-.34a8.06,8.06,0,0,1,1.64-.18c1,0,1.66.26,1.84.78a2.09,2.09,0,0,1,.12.72,1.73,1.73,0,0,1-.64,1.4,2.67,2.67,0,0,1-1.78.54h-.44a2.84,2.84,0,0,0-.16,1,8.81,8.81,0,0,1-.06.95.48.48,0,0,0,.42.35,2.34,2.34,0,0,1,1.46-.46A2,2,0,0,1,146.94,183.53Z"/><path class="cls-2" d="M150.7,8.87c-2.32-1.22-6.89-2.21-9.46-2.73C120.34,1.93,27.57-1,4.38,78.5c-28.25,96.9,169.48,111.69,191.91,32.74,0,0,13.45-44.57-28.06-36.6-3.08.59-12.83.57-17-.58-10.58-2.93-17.88-18.24,3.82-35.1.88-.68,3.27-2.67,5-4.29C162.54,32.32,168.6,18.33,150.7,8.87Z"/><circle class="cls-3" cx="174.48" cy="98.4" r="11.97"/><circle class="cls-4" cx="78.18" cy="73.35" r="2.62"/><circle class="cls-4" cx="105.63" cy="73.35" r="2.5"/><path class="cls-4" d="M90.12,84.05a1.38,1.38,0,0,1-1.38-1.38V74.12a1.38,1.38,0,1,1,2.75,0v8.55A1.37,1.37,0,0,1,90.12,84.05Z"/><path class="cls-4" d="M89.84,99.06a9.66,9.66,0,0,1-1.2-.07C81,98.13,77.08,89.35,76.92,89a1.37,1.37,0,1,1,2.52-1.1c0,.08,3.44,7.71,9.52,8.39,4.67.51,9.87-3.08,15.46-10.68a1.37,1.37,0,1,1,2.21,1.62C100.85,95.08,95.21,99.06,89.84,99.06Z"/><path class="cls-5" d="M105.72,143.17c-4.79,1.91-11.44-5.36-13.35-10.14s1.65-5.29,6.44-7.2,11.52,5,13.43,9.81S110.51,141.26,105.72,143.17Z"/><path class="cls-6" d="M34.75,104c-4.09,3.81-8,2.16-10.92-1.44C19.32,98.82,17.49,95.3,20,91.7c4-3.57,12.58-6.73,15.39-3.21C40.23,92,37.49,100.33,34.75,104Z"/><path class="cls-7" d="M38.48,130.09c-4.34-2.77-8.19-5.33-5.42-9.68s11.11-8.82,15.46-6,3.35,6.48.58,10.82S42.83,132.86,38.48,130.09Z"/><path class="cls-8" d="M79,138.6c0,5.15-5.27,5.23-10.42,5.23s-6.38-4.68-6.38-9.84,1.22-8.83,6.38-8.83S79,133.44,79,138.6Z"/></svg>