<svg id="레이어_1" data-name="레이어 1" xmlns="http://www.w3.org/2000/svg" viewBox="0 0 150 150"><defs><style>.cls-1{fill:#c4af9f;}.cls-2{fill:#2d2d2d;}</style></defs><path class="cls-1" d="M109.33,24.66a29.28,29.28,0,0,0-6.41-1.85C88.77,20,26,18,10.26,71.81-8.87,137.42,125,147.44,140.2,94c0,0,9.11-30.18-19-24.79a38.26,38.26,0,0,1-11.49-.39c-7.16-2-12.1-12.35,2.59-23.76.59-.46,2.21-1.81,3.37-2.91C117.35,40.54,121.45,31.06,109.33,24.66Z"/><circle class="cls-2" cx="55.07" cy="69.28" r="1.78"/><circle class="cls-2" cx="75.27" cy="69.28" r="1.69"/><path class="cls-2" d="M63.15,76.52a.93.93,0,0,1-.93-.93v-5.8a.93.93,0,1,1,1.86,0v5.8A.93.93,0,0,1,63.15,76.52Z"/><path class="cls-2" d="M69.31,83.88h-9a.93.93,0,0,1,0-1.86h9a.93.93,0,1,1,0,1.86Z"/></svg>