<svg id="레이어_1" data-name="레이어 1" xmlns="http://www.w3.org/2000/svg" viewBox="0 0 150 150"><defs><style>.cls-1{fill:#909ecf;}.cls-2{fill:#2d2d2d;}.cls-3{fill:none;stroke:#2d2d2d;stroke-linecap:round;stroke-linejoin:round;stroke-width:1.26px;}.cls-4{fill:#aed3ff;}</style></defs><path class="cls-1" d="M6.9,116.13a1.49,1.49,0,0,0,.09-.3c.75-4,17.06-88.53,69.82-93.4,53.52-4.94,108.27,55,30.16,100.93a19.56,19.56,0,0,1-5.69,2.23c-6.18,1.37-20.85,3.63-44,1.19-25.66-2.7-45.56-4-52.13-4.44a1.13,1.13,0,0,1-.84-1.82A24.88,24.88,0,0,0,6.9,116.13Z"/><circle class="cls-2" cx="94.86" cy="56.75" r="1.21"/><circle class="cls-2" cx="110.18" cy="56.32" r="1.15"/><line class="cls-3" x1="102.59" y1="57.73" x2="102.59" y2="61.67"/><path class="cls-3" d="M98.32,69.17s4.36-4.37,10.05.62"/><path class="cls-4" d="M92.9,60.71c-.44.78-1.26,1.17-1.82.85a1.46,1.46,0,0,1-.24-2c.44-.78,1.51-1.62,2.07-1.31S93.33,59.92,92.9,60.71Z"/></svg>